<svg fill="#5A665A" height="256px" width="256px" version="1.1" id="Capa_1" xmlns="http://www.w3.org/2000/svg" xmlns:xlink="http://www.w3.org/1999/xlink" viewBox="-151.4 -151.4 761.60 761.60" xml:space="preserve" transform="matrix(-1, 0, 0, 1, 0, 0)rotate(90)" stroke="#5A665A" stroke-width="19.7284"><g id="SVGRepo_bgCarrier" stroke-width="0"><path transform="translate(-151.4, -151.4), scale(23.8)" d="M16,28.086624754799736C20.112969545234527,28.256264314269902,24.606978212580586,28.122033999670258,27.335591362404177,25.039832458762568C30.189507037105912,21.816091016794154,30.84767349632476,16.99758201871502,29.409589175051174,12.939348776541776C28.123332774844936,9.309569629341134,24.118823642393764,8.014669483412154,20.684886769953703,6.271732381672479C17.09859834351332,4.451467365693605,13.320241663249794,1.1664479926495088,9.71120997159925,2.9411929474750824C6.112179656565332,4.711019715316392,6.419212503798072,9.70293077480327,5.688157227691013,13.64638917828324C5.016643426008612,17.268668957725602,3.638371149772401,21.152693319605252,5.779292522628731,24.150742228754986C8.011437968064474,27.276537179750253,12.162290687481793,27.92833831236681,16,28.086624754799736" fill="#ECDFCC" strokewidth="0"></path></g><g id="SVGRepo_tracerCarrier" stroke-linecap="round" stroke-linejoin="round"></g><g id="SVGRepo_iconCarrier"> <path d="M390.203,252.363c-2.631-15.947-9.366-30.498-19.235-42.434v-41.667C370.967,75.483,295.483,0,202.705,0 C109.926,0,34.44,75.483,34.44,168.263v41.667c-12.829,15.508-20.534,35.416-20.534,57.11c0,41.197,27.795,75.814,65.632,86.341 v3.367c0,13.283,10.768,24.061,24.06,24.061c13.291,0,24.06-10.777,24.06-24.061v-179.4c0-13.283-10.769-24.061-24.06-24.061 c-13.292,0-24.06,10.777-24.06,24.061v3.368c-4.497,1.237-8.835,2.819-13.018,4.73v-17.184c0-75.093,61.09-136.183,136.185-136.183 c75.093,0,136.183,61.09,136.183,136.183v17.184c-4.182-1.911-8.537-3.493-13.032-4.746v-3.352c0-13.283-10.77-24.061-24.06-24.061 s-24.06,10.777-24.06,24.061v179.4c0,13.283,10.77,24.061,24.06,24.061s24.06-10.777,24.06-24.061v-3.367 c32.018-8.898,56.829-35.025,63.714-67.826c13.557,5.2,23.245,18.265,23.245,33.615v55.42c0,19.892-16.189,36.09-36.09,36.09 h-72.618c-5.561-9.555-15.79-16.04-27.632-16.04h-34.75c-17.716,0-32.08,14.364-32.08,32.08c0,17.716,14.364,32.08,32.08,32.08 h34.75c11.842,0,22.071-6.485,27.632-16.04h72.618c37.587,0,68.17-30.575,68.17-68.17v-55.42 C444.894,286.198,421.351,258.645,390.203,252.363z"></path> </g></svg>